<svg xmlns="http://www.w3.org/2000/svg" width="280" height="280" viewBox="0 0 64 64" fill="none">
  <defs>
    <linearGradient id="oz-bg" x1="0" y1="0" x2="1" y2="1">
      <stop offset="0" stop-color="#8b5cf6"></stop>
      <stop offset="1" stop-color="#5b21b6"></stop>
    </linearGradient>
  </defs>

  
  <circle cx="32" cy="32" r="28" fill="url(#oz-bg)"></circle>

  
  <path fill="#f9f9f9" d="m 42.69949,50.729586 c -5.246771,-1.783072 -10.782457,-1.832655 -16.63185,0 -0.668227,0.02122 -0.999265,-0.317022 -0.478323,-0.97503 L 47.71668,18.700815 c 0,0 0.157573,-0.196687 0.354413,-0.298049 0.147255,-0.07583 0.295663,-0.0759 0.450161,0.0028 0.163897,0.08346 0.281363,0.233899 0.343513,0.325372 5.118536,7.533388 8.852414,20.216321 -4.595268,31.484113 -0.587268,0.492072 -0.882773,0.514556 -1.57001,0.514557 z"></path>

  
  <g transform="rotate(180 32 32)">
    <path fill="#f9f9f9" d="m 42.69949,50.729586 c -5.246771,-1.783072 -10.782457,-1.832655 -16.63185,0 -0.668227,0.02122 -0.999265,-0.317022 -0.478323,-0.97503 L 47.71668,18.700815 c 0,0 0.157573,-0.196687 0.354413,-0.298049 0.147255,-0.07583 0.295663,-0.0759 0.450161,0.0028 0.163897,0.08346 0.281363,0.233899 0.343513,0.325372 5.118536,7.533388 8.852414,20.216321 -4.595268,31.484113 -0.587268,0.492072 -0.882773,0.514556 -1.57001,0.514557 z"></path>
  </g>
</svg>