<svg xmlns="http://www.w3.org/2000/svg" viewBox="0 0 64 64" width="256" height="256" fill="none">
  <defs>
    <!-- Solid-shield style + both badges. Two cutouts in the shield
         mask: bottom-right for the status badge, top-right for the
         update pip. Each badge sits in a thin transparent ring so
         the shield outline never bulges into the badge shape. -->
    <mask id="cut">
      <rect width="64" height="64" fill="white"/>
      <g transform="translate(32 32) scale(0.78) translate(-32 -32)">
        <path fill="black" d="m 42.69949,50.729586 c -5.246771,-1.783072 -10.782457,-1.832655 -16.63185,0 -0.668227,0.02122 -0.999265,-0.317022 -0.478323,-0.97503 L 47.71668,18.700815 c 0,0 0.157573,-0.196687 0.354413,-0.298049 0.147255,-0.07583 0.295663,-0.0759 0.450161,0.0028 0.163897,0.08346 0.281363,0.233899 0.343513,0.325372 5.118536,7.533388 8.852414,20.216321 -4.595268,31.484113 -0.587268,0.492072 -0.882773,0.514556 -1.57001,0.514557 z"/>
        <g transform="rotate(180 32 32)">
          <path fill="black" d="m 42.69949,50.729586 c -5.246771,-1.783072 -10.782457,-1.832655 -16.63185,0 -0.668227,0.02122 -0.999265,-0.317022 -0.478323,-0.97503 L 47.71668,18.700815 c 0,0 0.157573,-0.196687 0.354413,-0.298049 0.147255,-0.07583 0.295663,-0.0759 0.450161,0.0028 0.163897,0.08346 0.281363,0.233899 0.343513,0.325372 5.118536,7.533388 8.852414,20.216321 -4.595268,31.484113 -0.587268,0.492072 -0.882773,0.514556 -1.57001,0.514557 z"/>
        </g>
      </g>
      <circle cx="47" cy="47" r="18" fill="black"/>
      <circle cx="51" cy="14" r="13" fill="black"/>
    </mask>
  </defs>

  <path d="M32 5 C40 7 48 10 55 12 V32 C55 43.5 46.5 53 32 59 C17.5 53 9 43.5 9 32 V12 C16 10 24 7 32 5 Z"
        fill="currentColor" mask="url(#cut)"/>

  <!-- Solid filled connected dot in the bottom-right cutout. -->
  <circle cx="47" cy="47" r="15" fill="currentColor"/>

  <!-- Solid filled update pip in the top-right cutout. -->
  <circle cx="51" cy="14" r="10" fill="currentColor"/>
</svg>
